<?xml version="1.0" encoding="UTF-8" ?>
<!DOCTYPE svg PUBLIC "-//W3C//DTD SVG 1.1//EN" "http://www.w3.org/Graphics/SVG/1.1/DTD/svg11.dtd">
<svg width="500pt" height="520pt" viewBox="0 0 500 520" version="1.1" xmlns="http://www.w3.org/2000/svg">
<path fill="#fdfdfd" d=" M 0.00 0.00 L 500.00 0.00 L 500.00 520.00 L 0.00 520.00 L 0.00 0.00 Z" />
<path fill="#7e549f" d=" M 108.97 26.00 C 147.75 10.88 189.58 5.36 230.97 4.05 C 259.67 3.98 288.48 4.21 316.97 8.08 C 341.81 11.38 366.42 17.08 389.76 26.30 C 407.62 33.48 425.09 42.55 439.33 55.70 C 450.85 66.19 459.74 79.29 466.80 93.12 C 478.25 116.08 484.64 141.24 488.23 166.56 C 492.38 196.50 492.73 226.87 490.95 257.01 C 489.73 275.47 488.17 293.95 485.10 312.21 C 479.34 344.63 466.09 376.91 442.04 400.06 C 423.23 419.39 398.08 431.49 372.20 438.20 C 364.25 440.07 356.49 442.67 348.47 444.26 C 302.79 453.88 255.72 455.75 209.24 452.48 C 204.03 459.75 197.49 465.95 191.88 472.91 C 183.35 482.05 175.17 491.49 166.63 500.63 C 163.23 504.85 158.93 508.36 154.39 511.29 C 147.19 515.86 136.99 515.33 130.75 509.36 C 125.76 503.83 123.87 496.18 123.71 488.90 C 123.86 471.61 123.74 454.31 123.80 437.02 C 102.60 430.86 82.16 421.14 65.35 406.67 C 50.47 394.32 38.81 378.38 30.12 361.18 C 16.68 334.12 10.67 304.00 8.34 274.06 C 6.56 252.09 6.90 230.01 7.41 208.00 C 8.24 180.56 11.03 152.97 18.64 126.51 C 25.49 102.73 36.65 79.82 53.48 61.48 C 68.57 45.13 88.56 34.28 108.97 26.00 Z" />
<path fill="#fdfdfd" d=" M 167.12 11.10 C 197.10 5.93 227.62 4.17 258.00 5.16 C 300.61 5.44 343.73 10.30 383.95 24.98 C 401.32 31.47 418.31 39.65 432.88 51.24 C 452.57 67.01 465.82 89.38 474.37 112.83 C 484.06 139.49 488.46 167.79 490.25 196.01 C 491.79 222.32 491.03 248.71 488.71 274.95 C 486.91 294.53 484.92 314.24 479.38 333.18 C 473.46 353.77 464.02 373.58 450.23 390.08 C 431.40 413.10 404.52 428.50 376.04 436.25 C 364.87 439.09 353.84 442.54 342.48 444.58 C 298.71 452.99 253.79 454.90 209.40 451.43 C 195.36 468.03 180.56 483.94 166.09 500.16 C 161.37 505.19 156.21 510.30 149.52 512.56 C 142.73 514.71 134.27 512.99 129.90 507.05 C 125.61 500.99 124.40 493.29 124.63 486.01 C 124.77 469.45 124.63 452.89 124.70 436.34 C 95.39 428.32 67.77 412.29 48.61 388.40 C 26.12 360.91 15.42 325.78 10.99 291.03 C 7.88 267.19 7.63 243.09 8.10 219.09 C 8.51 186.15 11.20 152.82 21.15 121.25 C 28.70 97.16 41.21 74.26 59.40 56.55 C 72.63 44.54 88.37 35.61 104.75 28.65 C 124.72 20.26 145.81 14.78 167.12 11.10 Z" />
<path fill="#7e549f" d=" M 185.20 44.67 C 208.94 41.27 233.01 40.03 256.97 41.11 C 297.29 41.45 338.23 46.14 375.98 60.99 C 391.67 67.33 407.41 75.30 418.52 88.44 C 433.92 106.24 442.37 128.88 447.64 151.53 C 455.25 185.42 456.10 220.47 453.94 255.03 C 452.62 272.66 451.27 290.37 447.62 307.70 C 443.57 326.36 436.47 344.61 425.00 360.00 C 414.21 374.72 399.37 386.33 382.69 393.68 C 372.87 398.10 362.45 400.96 351.96 403.27 C 330.16 409.40 307.62 412.55 285.10 414.59 C 262.71 416.50 240.18 416.81 217.75 415.39 C 192.44 442.42 167.42 469.72 142.24 496.87 C 142.43 465.57 141.98 434.28 142.00 402.99 C 128.09 399.10 114.56 393.47 102.60 385.32 C 86.88 374.92 74.10 360.33 65.29 343.71 C 49.60 314.14 45.42 280.09 44.76 247.08 C 44.65 207.33 44.70 166.38 58.80 128.63 C 65.23 111.65 74.84 95.65 88.07 83.10 C 98.23 74.02 110.14 67.08 122.57 61.60 C 142.48 52.93 163.77 47.84 185.20 44.67 Z" />
<path fill="#fdfdfd" d=" M 242.39 108.31 C 243.51 107.69 244.71 107.41 246.00 107.48 C 273.27 107.18 300.85 115.66 322.35 132.65 C 334.31 142.07 344.74 153.61 352.05 167.02 C 363.51 187.65 368.08 211.55 367.93 234.98 C 367.80 240.45 360.35 243.05 356.54 239.42 C 353.67 237.19 354.32 233.29 354.13 230.11 C 353.51 206.42 347.49 182.13 332.99 163.00 C 317.14 141.89 293.01 127.21 266.95 122.95 C 259.39 121.47 251.67 121.48 244.03 120.85 C 238.39 119.61 237.35 111.01 242.39 108.31 Z" />
<path fill="#fdfdfd" d=" M 153.40 111.63 C 158.75 109.92 164.75 110.69 169.61 113.46 C 173.97 115.91 177.40 119.63 180.66 123.35 C 186.56 130.17 192.29 137.14 197.56 144.47 C 203.46 152.53 209.27 160.90 212.54 170.42 C 214.27 175.27 214.36 181.00 211.21 185.30 C 206.40 191.52 199.65 195.77 193.68 200.76 C 186.47 206.73 188.12 217.22 191.03 224.99 C 195.58 238.93 204.42 251.05 214.63 261.40 C 225.84 272.57 238.59 282.58 253.29 288.72 C 257.11 290.26 261.00 291.74 265.09 292.42 C 269.77 293.13 274.97 291.82 278.18 288.18 C 282.18 283.49 285.73 278.44 289.82 273.82 C 296.37 267.25 307.33 266.60 315.33 270.79 C 329.62 278.61 343.02 287.96 355.48 298.44 C 360.19 302.67 366.24 305.94 368.94 311.96 C 371.84 318.13 370.41 325.41 367.10 331.12 C 362.79 338.54 357.44 345.36 351.30 351.35 C 342.00 361.54 327.33 369.34 313.45 364.29 C 283.50 352.56 254.87 337.20 229.20 317.76 C 202.23 297.34 178.56 272.67 158.76 245.27 C 141.03 220.68 126.55 193.65 116.83 164.90 C 114.86 158.70 113.41 151.92 115.34 145.52 C 117.26 139.14 122.08 134.25 126.84 129.84 C 133.08 124.28 140.02 119.57 146.94 114.91 C 148.94 113.55 151.07 112.33 153.40 111.63 Z" />
<path fill="#fdfdfd" d=" M 253.32 138.36 C 256.09 137.16 259.20 138.04 262.09 138.22 C 280.21 140.17 298.26 146.82 311.77 159.32 C 329.67 175.43 338.77 200.15 336.98 223.99 C 336.02 228.96 329.19 230.75 325.66 227.33 C 322.59 224.77 323.71 220.46 323.41 216.99 C 323.06 200.42 316.77 183.86 304.96 172.07 C 293.31 159.73 276.54 153.52 259.92 151.88 C 257.23 151.50 254.21 151.77 251.94 149.99 C 248.09 147.10 248.84 140.24 253.32 138.36 Z" />
<path fill="#fdfdfd" d=" M 262.51 169.61 C 267.66 168.54 272.99 169.90 278.03 171.06 C 288.72 173.76 298.19 181.27 302.59 191.46 C 305.59 198.22 307.17 205.68 307.00 213.08 C 306.79 218.15 300.11 220.81 296.22 217.80 C 293.26 215.90 293.35 212.09 293.05 209.01 C 292.36 200.96 289.20 192.44 282.17 187.85 C 276.62 183.92 269.66 183.36 263.13 182.55 C 257.09 181.16 256.73 171.67 262.51 169.61 Z" />
</svg>
