<svg xmlns="http://www.w3.org/2000/svg" viewBox="0 0 512.003 512.003"><path d="M277.501 409.423c-3.223-8.858-11.721-14.808-21.143-14.808a22.46 22.46 0 0 0-7.694 1.36c-11.657 4.244-17.688 17.181-13.447 28.839 3.224 8.857 11.722 14.807 21.144 14.807a22.45 22.45 0 0 0 7.693-1.36c11.658-4.243 17.69-17.18 13.447-28.838zm-18.576 14.743a7.464 7.464 0 0 1-2.563.456 7.526 7.526 0 0 1-7.05-4.938c-1.414-3.886.597-8.199 4.482-9.613a7.464 7.464 0 0 1 2.563-.456 7.525 7.525 0 0 1 7.049 4.939c1.415 3.885-.595 8.197-4.481 9.612z"/><path d="M511.548 340.263l-10.262-28.19a7.474 7.474 0 0 0-3.832-4.208l-.045-.023c-.112-.053-.229-.094-.344-.141-.108-.044-.214-.094-.324-.133-.026-.01-.054-.016-.081-.024a7.454 7.454 0 0 0-4.985.046l-24.525 8.919-52.171-143.348-.005-.01-20.514-56.368a7.532 7.532 0 0 0-7.05-4.931c-.87 0-1.74.15-2.56.45-3.89 1.41-5.9 5.73-4.49 9.61l17.961 49.332-96.315 35.054-.005.001c-.003.001-.005.003-.008.003l-58.718 21.37-39.336-108.055 51.687-18.81 11.116 30.534a7.518 7.518 0 0 0 7.04 4.941c.88 0 1.74-.15 2.57-.461l37.589-13.68a7.453 7.453 0 0 0 4.23-3.87 7.46 7.46 0 0 0 .624-4.246l-.002-.023a7.35 7.35 0 0 0-.116-.584c-.013-.055-.02-.107-.033-.162a7.432 7.432 0 0 0-.222-.724L307.31 81.997l51.676-18.807L370.1 93.721c1.08 2.95 3.91 4.94 7.05 4.94.87 0 1.74-.15 2.57-.46 3.88-1.41 5.89-5.721 4.48-9.61l-13.68-37.589a7.539 7.539 0 0 0-5.89-4.84 7.462 7.462 0 0 0-3.72.359l-65.744 23.931c-.011.004-.023.005-.034.009-.02.007-.038.017-.058.024l-37.465 13.638c-.022.008-.044.01-.066.018-.037.014-.072.032-.109.046l-65.669 23.903a7.453 7.453 0 0 0-4.23 3.87 7.428 7.428 0 0 0-.25 5.74l44.458 122.155 42.753 117.472a62.053 62.053 0 0 0-16.939-2.699L149.248 57.046c-7.072-19.429-28.632-29.482-48.063-22.412l-.009.004L4.953 69.342l-.005.002-.016.005c-.173.063-.337.138-.502.212-.063.028-.129.051-.191.081-.162.077-.316.167-.47.255-.063.036-.13.067-.192.106-.148.09-.286.19-.426.289-.062.044-.128.084-.188.129-.13.099-.251.206-.374.313-.062.055-.129.104-.189.16-.116.106-.222.223-.33.336-.059.063-.122.12-.179.184-.102.115-.195.238-.29.359-.054.068-.113.134-.164.205-.086.118-.162.242-.241.365-.051.08-.107.156-.155.237-.072.122-.134.25-.199.376-.045.087-.095.172-.137.261-.058.124-.105.252-.157.379-.039.097-.083.189-.117.287-.044.124-.078.252-.115.378-.031.104-.067.207-.094.313-.031.124-.052.252-.077.378-.022.11-.049.22-.066.331-.02.128-.027.258-.04.387-.011.112-.028.224-.034.337-.007.132-.002.264-.002.396 0 .113-.006.226-.001.339.006.134.025.269.038.403.011.111.017.223.033.335.02.133.052.266.079.399.023.113.04.227.068.34.033.133.08.264.121.396.034.109.061.22.1.329l.003.007a.074.074 0 0 0 .004.014l10.261 28.19c.077.212.183.405.276.606.073.156.132.322.215.471.117.211.258.399.393.596.085.123.157.258.249.375.161.207.345.391.525.577.084.087.158.186.246.269.203.191.426.357.647.523.08.061.152.132.234.188.239.165.495.304.751.439.076.04.146.092.223.13.262.128.537.227.812.323.08.028.155.068.236.094.282.089.572.146.864.202.08.015.158.043.239.055a7.31 7.31 0 0 0 1.778.061c.044-.004.087-.013.131-.017.17-.018.339-.037.509-.066.078-.014.156-.035.234-.051.135-.028.27-.054.404-.09.143-.037.284-.086.426-.133.067-.021.134-.039.2-.063l.008-.003.012-.004.009-.004 89.187-32.168L215.28 370.038c-18.866 16.502-26.723 43.526-17.648 68.457 8.956 24.605 32.559 41.138 58.734 41.138a62.309 62.309 0 0 0 21.371-3.784c15.687-5.71 28.211-17.185 35.267-32.315a62.325 62.325 0 0 0 5.859-25.218l188.201-68.439.002-.001h.001c.05-.018.096-.042.145-.061.191-.074.38-.149.561-.237.077-.037.148-.082.224-.122.148-.077.296-.152.437-.238.08-.05.154-.108.232-.159.128-.086.259-.169.381-.261.039-.03.073-.064.111-.094.154-.123.307-.246.45-.379.024-.026.046-.051.07-.074.151-.146.299-.293.438-.449.028-.031.051-.066.079-.098.13-.152.257-.306.374-.467.013-.017.023-.036.035-.054.127-.179.249-.361.36-.55.02-.034.036-.071.056-.106.099-.174.194-.349.279-.53.033-.071.059-.146.089-.218.064-.148.129-.296.184-.448.037-.105.064-.213.096-.319.038-.123.081-.245.112-.37.046-.185.08-.373.112-.561.008-.05.022-.098.029-.147a7.473 7.473 0 0 0-.373-3.671zM293.217 87.127l8.545 23.49-23.492 8.55-8.55-23.489 23.497-8.551zm44.46 122.154l8.551 23.488-23.499 8.552-8.548-23.489 23.496-8.551zm-89.268 32.487l51.679-18.807 11.116 30.534a7.52 7.52 0 0 0 7.05 4.939c.87 0 1.73-.159 2.56-.46l37.589-13.68c3.89-1.41 5.9-5.72 4.48-9.61l-11.115-30.532 51.687-18.811 49.605 136.287-149.639 54.417a62.877 62.877 0 0 0-9.305-8.686l-45.707-125.591zM121.057 67.305c-.044-.12-.099-.233-.148-.351-.049-.115-.093-.234-.147-.347-.049-.103-.107-.197-.16-.296-.066-.123-.129-.249-.201-.367-.05-.081-.107-.155-.16-.234-.085-.128-.167-.258-.26-.379-.048-.064-.103-.121-.153-.184-.104-.129-.207-.258-.32-.379-.045-.049-.096-.093-.143-.141-.124-.126-.247-.252-.379-.369-.038-.033-.079-.062-.117-.094a7.003 7.003 0 0 0-.449-.36c-.022-.016-.046-.028-.068-.045a7.594 7.594 0 0 0-.536-.351l-.043-.022a7.526 7.526 0 0 0-3.384-1.009h-.032a7.427 7.427 0 0 0-.7-.001c-.043.002-.086.01-.129.013a7.306 7.306 0 0 0-.606.059c-.097.015-.193.039-.29.058-.148.027-.297.052-.445.089-.168.042-.335.099-.502.152-.074.024-.149.042-.223.068l-.01.004-.011.003-.009.004-89.187 32.168-5.131-14.096 89.176-32.164.005-.002.016-.005c11.66-4.243 24.595 1.789 28.838 13.448l107.034 294.077a62.754 62.754 0 0 0-7.204 2.136 62.807 62.807 0 0 0-6.889 3.004L121.057 67.305zm178.35 369.887c-5.362 11.499-14.88 20.221-26.802 24.56a47.354 47.354 0 0 1-16.241 2.88c-19.893 0-37.832-12.566-44.638-31.269-8.958-24.61 3.777-51.921 28.388-60.88a47.35 47.35 0 0 1 16.241-2.88c19.892 0 37.832 12.566 44.638 31.27 4.34 11.922 3.777 24.821-1.586 36.319zm17.814-34.242a63.548 63.548 0 0 0-2.133-7.206 62.19 62.19 0 0 0-2.995-6.891l177.662-64.606 5.131 14.096-177.665 64.607z"/></svg>