<?xml version="1.0" encoding="utf-8"?>
<!-- Generator: Adobe Illustrator 19.1.1, SVG Export Plug-In . SVG Version: 6.00 Build 0)  -->
<svg version="1.1" id="Слой_1" xmlns="http://www.w3.org/2000/svg" xmlns:xlink="http://www.w3.org/1999/xlink" x="0px" y="0px"
	 viewBox="0 0 25.5 25.5" style="enable-background:new 0 0 25.5 25.5;" xml:space="preserve">
<style type="text/css">
	.st0{fill:#201600;}
</style>
<path class="st0" d="M12.7,25.5C5.7,25.5,0,19.8,0,12.7S5.7,0,12.7,0c7,0,12.7,5.7,12.7,12.8S19.8,25.5,12.7,25.5 M12.7,0.5
	C6,0.5,0.5,6,0.5,12.7C0.5,19.5,6,25,12.7,25C19.5,25,25,19.5,25,12.7C25,6,19.5,0.5,12.7,0.5"/>
<path class="st0" d="M18.2,7.2c-0.1-0.1-0.3-0.1-0.4,0l-5.1,5.1L7.6,7.2c-0.1-0.1-0.3-0.1-0.4,0c-0.1,0.1-0.1,0.3,0,0.4l5.1,5.1
	l-5.1,5.1c-0.1,0.1-0.1,0.3,0,0.4c0.1,0.1,0.3,0.1,0.4,0l5.1-5.1l5.1,5.1c0.1,0.1,0.3,0.1,0.4,0c0.1-0.1,0.1-0.3,0-0.4l-5.1-5.1
	l5.1-5.1C18.4,7.5,18.4,7.3,18.2,7.2"/>
</svg>
