<?xml version="1.0" encoding="utf-8"?>
<!-- Generator: Adobe Illustrator 19.1.1, SVG Export Plug-In . SVG Version: 6.00 Build 0)  -->
<svg version="1.1" id="Слой_1" xmlns="http://www.w3.org/2000/svg" xmlns:xlink="http://www.w3.org/1999/xlink" x="0px" y="0px"
	 width="67px" height="33.6px" viewBox="0 0 67 33.6" style="enable-background:new 0 0 67 33.6;" xml:space="preserve">
<style type="text/css">
	.st0{fill:#201600;}
</style>
<g>
	<path class="st0" d="M21.9,0.1h1l14.8,28.7c0.5,0.9,1,1.6,1.6,2.2c0.6,0.6,1.3,1,2,1.3c0.7,0.3,1.6,0.4,2.6,0.4h1v0.9H23.5v-0.9
		h2.8c1.4,0,2.4-0.2,3-0.5c0.6-0.3,1-0.9,1-1.6c0-0.4-0.1-1-0.4-1.6c-0.3-0.6-0.8-1.8-1.7-3.4c-0.1-0.1-0.1-0.2-0.2-0.5
		c-0.1-0.2-0.2-0.4-0.3-0.6L27,23.3H11.4l-1.2,2.4c-0.4,0.8-0.6,1.7-0.6,2.5c0,0.7,0.2,1.4,0.7,2.1c0.4,0.7,1,1.2,1.7,1.6
		c0.5,0.3,0.9,0.4,1.3,0.5c0.4,0.1,0.9,0.1,1.6,0.2v0.9H0v-0.9c1.1-0.1,2-0.3,2.6-0.5C3.2,31.9,4,31.5,4.7,31
		c1.9-1.3,3.7-3.7,5.5-7.3L21.9,0.1z M19.1,7.8l-7.2,14.7h14.6L19.1,7.8z"/>
	<path d="M41.6,0v0.9h3.1c4.5,0,6.7,2,6.7,6v19.3c0,1.4-0.3,2.6-0.9,3.5c-0.6,1-1.5,1.7-2.7,2.2c-0.9,0.4-1.9,0.6-3.1,0.7v1
		c2.3,0,4.4-0.3,6.3-0.9c2-0.6,3.6-1.5,5-2.7c2-1.8,3-4.2,3-7.2V6.8c0-4,2.2-6,6.7-6H67V0H41.6z"/>
</g>
</svg>
