<?xml version="1.0" encoding="utf-8"?>
<!-- Generator: Adobe Illustrator 16.0.0, SVG Export Plug-In . SVG Version: 6.00 Build 0)  -->
<!DOCTYPE svg PUBLIC "-//W3C//DTD SVG 1.1//EN" "http://www.w3.org/Graphics/SVG/1.1/DTD/svg11.dtd">
<svg version="1.1" id="Layer_1" xmlns="http://www.w3.org/2000/svg" xmlns:xlink="http://www.w3.org/1999/xlink" x="0px" y="0px"
	 width="206px" height="25px" viewBox="0 0 206 25" enable-background="new 0 0 206 25" xml:space="preserve">
<g>
	<path fill-rule="evenodd" clip-rule="evenodd" fill="#070C1B" d="M0.014,14.086c0.11-1.66,0.166-4.009,0.166-7.056
		c0-2.75-0.05-4.999-0.145-6.752c0.769,0.042,1.59,0.062,2.466,0.062c0.9,0,2.445-0.021,4.63-0.062c0,0.055,0,0.148,0,0.283
		C7.117,0.696,7.11,0.796,7.11,0.865c0,0.052,0.007,0.147,0.021,0.283c0,0.134,0,0.234,0,0.303C5.592,1.317,3.998,1.252,2.339,1.252
		H1.876C1.849,2.856,1.835,4.277,1.835,5.516v0.808h0.362c1.242,0,2.702-0.056,4.385-0.162C6.555,6.43,6.544,6.641,6.544,6.789
		c0,0.134,0.011,0.321,0.038,0.566c-0.59-0.106-1.855-0.162-3.801-0.162H1.835v0.969c0,0.594,0,2.236,0,4.93h0.507
		c1.218,0,2.84-0.072,4.868-0.22c0,0.068,0,0.167,0,0.302c-0.014,0.135-0.021,0.238-0.021,0.305c0,0.068,0.007,0.168,0.021,0.303
		c0,0.135,0,0.234,0,0.305c-0.728,0-1.88,0-3.457,0C2.121,14.086,0.876,14.086,0.014,14.086L0.014,14.086z M9.463,14.086
		c0.62-0.957,1.973-2.999,4.063-6.124l0.483-0.728l-0.362-0.649c-0.662-1.187-1.915-3.288-3.761-6.307
		c0.324,0.055,0.68,0.08,1.073,0.08c0.39,0,0.738-0.024,1.049-0.08c1.228,2.384,2.091,3.961,2.588,4.73l0.466,0.728l0.485-0.707
		c0.714-1.038,1.636-2.622,2.768-4.751c0.245,0.08,0.486,0.121,0.728,0.121c0.259,0,0.507-0.042,0.748-0.121
		c-1.631,2.333-2.935,4.251-3.922,5.762l-0.342,0.524l0.424,0.707c0.418,0.69,1.794,2.96,4.13,6.814
		c-0.403-0.07-0.769-0.102-1.093-0.102c-0.335,0-0.707,0.031-1.111,0.102c-0.783-1.591-1.746-3.336-2.892-5.238l-0.486-0.807
		l-0.486,0.707c-0.755,1.104-1.779,2.885-3.073,5.338c-0.27-0.07-0.515-0.102-0.729-0.102C9.983,13.984,9.731,14.016,9.463,14.086
		L9.463,14.086z M22.979,14.086c0.11-1.66,0.166-4.009,0.166-7.056c0-2.75-0.048-4.999-0.145-6.752
		c0.77,0.042,1.59,0.062,2.467,0.062c0.899,0,2.446-0.021,4.629-0.062c0,0.055,0,0.148,0,0.283c-0.014,0.134-0.02,0.234-0.02,0.304
		c0,0.052,0.006,0.147,0.02,0.283c0,0.134,0,0.234,0,0.303c-1.538-0.134-3.132-0.199-4.792-0.199h-0.462
		C24.814,2.856,24.8,4.277,24.8,5.516v0.808h0.362c1.243,0,2.702-0.056,4.386-0.162c-0.027,0.269-0.037,0.479-0.037,0.627
		c0,0.134,0.01,0.321,0.037,0.566c-0.59-0.106-1.855-0.162-3.802-0.162H24.8v0.969c0,0.594,0,2.236,0,4.93h0.509
		c1.218,0,2.838-0.072,4.867-0.22c0,0.068,0,0.167,0,0.302c-0.014,0.135-0.021,0.238-0.021,0.305c0,0.068,0.007,0.168,0.021,0.303
		c0,0.135,0,0.234,0,0.305c-0.729,0-1.88,0-3.457,0C25.087,14.086,23.842,14.086,22.979,14.086L22.979,14.086z M44.424,13.219
		c-1.021,0.756-2.532,1.135-4.527,1.135c-2.238,0-3.971-0.623-5.205-1.868c-1.231-1.25-1.85-3.013-1.85-5.293
		c0-2.173,0.676-3.912,2.032-5.22c1.352-1.308,3.178-1.963,5.468-1.963c1.604,0,3.054,0.324,4.348,0.973
		c-0.218,0.69-0.324,1.335-0.324,1.946c-0.929-1.449-2.291-2.173-4.082-2.173c-1.68,0-2.994,0.562-3.937,1.687
		c-0.941,1.125-1.414,2.711-1.414,4.761c0,1.994,0.47,3.554,1.403,4.679c0.936,1.125,2.206,1.687,3.807,1.687
		c1.549,0,3.019-0.562,4.406-1.687L44.424,13.219L44.424,13.219z M47.949,0.278c0.269,0.055,0.565,0.08,0.89,0.08
		c0.362,0,0.68-0.024,0.949-0.08l-0.08,7.349c0,1.024,0.049,1.798,0.142,2.322c0.135,0.862,0.425,1.562,0.87,2.101
		c0.756,0.914,1.858,1.374,3.314,1.374c1.47,0,2.582-0.474,3.336-1.416c0.432-0.542,0.715-1.283,0.85-2.225
		c0.094-0.635,0.142-1.694,0.142-3.174c0-2.28-0.028-4.389-0.083-6.331c0.204,0.055,0.411,0.08,0.628,0.08
		c0.241,0,0.466-0.024,0.666-0.08c-0.062,1.739-0.093,2.967-0.093,3.681v0.525c0,2.197-0.034,3.723-0.101,4.571
		c-0.124,1.279-0.365,2.246-0.728,2.891c-0.933,1.604-2.577,2.407-4.938,2.407c-2.008,0-3.475-0.49-4.389-1.464
		c-0.917-0.977-1.376-2.52-1.376-4.62c0-0.083,0.011-0.586,0.031-1.518s0.03-1.815,0.03-2.65C48.011,3.007,47.99,1.734,47.949,0.278
		L47.949,0.278z M66.658,14.086c0.064-3.706,0.1-6.866,0.1-9.48V1.23h-0.545c-1.604,0-2.843,0.08-3.719,0.242
		c0.027-0.245,0.041-0.431,0.041-0.566c0-0.148-0.014-0.358-0.041-0.628c1.535,0.042,3.146,0.062,4.83,0.062
		c1.715,0,3.506-0.021,5.378-0.062c-0.04,0.176-0.062,0.369-0.062,0.587c0,0.203,0.021,0.403,0.062,0.607
		C71.795,1.31,70.595,1.23,69.104,1.23h-0.59c-0.064,1.118-0.1,2.629-0.1,4.527c0,2.453,0.041,5.23,0.124,8.329
		c-0.188,0-0.493,0-0.911,0C67.21,14.086,66.886,14.086,66.658,14.086L66.658,14.086z M75.811,14.086
		c0.083-1.266,0.125-3.005,0.125-5.217V7.192c0-3.385-0.042-5.689-0.125-6.914c0.27,0.055,0.573,0.08,0.911,0.08
		c0.347,0,0.665-0.024,0.948-0.08c-0.051,0.891-0.079,2.211-0.079,3.961v2.953c0.003,0.418,0.003,0.997,0,1.739
		c0,0.742,0,1.273,0,1.597c0,1.563,0.028,2.749,0.079,3.558c-0.338-0.07-0.639-0.102-0.91-0.102
		C76.49,13.984,76.176,14.016,75.811,14.086L75.811,14.086z M85.963,14.086c-2.035-5.338-3.87-9.94-5.502-13.808
		c0.31,0.055,0.641,0.08,0.99,0.08c0.379,0,0.707-0.024,0.993-0.08c1.359,3.774,2.884,7.708,4.571,11.806
		c1.656-4.03,3.152-7.966,4.488-11.806c0.203,0.055,0.425,0.08,0.669,0.08c0.255,0,0.483-0.024,0.687-0.08
		C91,4.698,89.145,9.301,87.299,14.086c-0.245-0.07-0.467-0.102-0.67-0.102C86.429,13.984,86.205,14.016,85.963,14.086
		L85.963,14.086z M95.481,14.086c0.11-1.66,0.165-4.009,0.165-7.056c0-2.75-0.049-4.999-0.145-6.752
		c0.77,0.042,1.59,0.062,2.467,0.062c0.9,0,2.445-0.021,4.63-0.062c0,0.055,0,0.148,0,0.283c-0.014,0.134-0.021,0.234-0.021,0.304
		c0,0.052,0.007,0.147,0.021,0.283c0,0.134,0,0.234,0,0.303c-1.539-0.134-3.133-0.199-4.792-0.199h-0.463
		c-0.027,1.604-0.041,3.025-0.041,4.264v0.808h0.363c1.242,0,2.701-0.056,4.385-0.162c-0.028,0.269-0.039,0.479-0.039,0.627
		c0,0.134,0.011,0.321,0.039,0.566c-0.59-0.106-1.857-0.162-3.803-0.162h-0.945v0.969c0,0.594,0,2.236,0,4.93h0.508
		c1.217,0,2.839-0.072,4.867-0.22c0,0.068,0,0.167,0,0.302c-0.014,0.135-0.021,0.238-0.021,0.305c0,0.068,0.007,0.168,0.021,0.303
		c0,0.135,0,0.234,0,0.305c-0.728,0-1.881,0-3.457,0C97.589,14.086,96.344,14.086,95.481,14.086L95.481,14.086z M115.72,13.281
		c0.241-0.717,0.39-1.431,0.444-2.146c0.632,1.621,1.742,2.433,3.334,2.433c0.861,0,1.559-0.266,2.09-0.8
		c0.531-0.536,0.797-1.26,0.797-2.181c0-0.646-0.168-1.167-0.504-1.56c-0.296-0.352-0.807-0.683-1.535-0.994l-1.631-0.687
		c-1.791-0.759-2.686-1.894-2.686-3.405c0-1.148,0.394-2.087,1.182-2.819c0.789-0.727,1.814-1.093,3.08-1.093
		c1.062,0,2.086,0.248,3.07,0.749c-0.203,0.42-0.39,0.941-0.566,1.563c-0.714-1.045-1.642-1.566-2.787-1.566
		c-0.742,0-1.332,0.225-1.77,0.676c-0.438,0.452-0.656,1.063-0.656,1.833c0,1.052,0.681,1.876,2.04,2.47l1.632,0.708
		c0.941,0.407,1.621,0.876,2.039,1.418c0.418,0.538,0.623,1.242,0.623,2.104c0,1.308-0.438,2.363-1.311,3.167
		c-0.876,0.803-2.039,1.203-3.494,1.203C117.766,14.354,116.633,13.996,115.72,13.281L115.72,13.281z M127.428,14.086
		c0.111-1.632,0.166-4.109,0.166-7.438c0-2.912-0.048-5.034-0.145-6.369c0.283,0.055,0.601,0.08,0.949,0.08
		c0.352,0,0.662-0.024,0.931-0.08c-0.079,0.659-0.12,2.37-0.12,5.134v0.787c0.928,0.014,2.321,0.021,4.182,0.021
		c1.846,0,3.232-0.007,4.16-0.021V5.412c0-1.929-0.059-3.64-0.176-5.134c0.283,0.055,0.607,0.08,0.97,0.08
		c0.365,0,0.679-0.024,0.952-0.08c-0.1,1.929-0.152,4.051-0.152,6.369c0,2.087,0.056,4.567,0.17,7.438
		c-0.283-0.057-0.611-0.08-0.991-0.08c-0.349,0-0.659,0.023-0.928,0.08c0.104-1.705,0.155-3.727,0.155-6.065V7.068
		c-1.387-0.042-2.773-0.062-4.16-0.062c-1.388,0-2.781,0.021-4.182,0.062v0.952c0,3.326,0.034,5.347,0.1,6.065
		c-0.282-0.057-0.607-0.08-0.969-0.08C128.002,14.006,127.697,14.029,127.428,14.086L127.428,14.086z M150.213,14.375
		c-2.306,0-4.127-0.643-5.462-1.921c-1.336-1.283-2.001-3.029-2.001-5.241c0-2.184,0.676-3.929,2.031-5.23
		c1.356-1.301,3.164-1.953,5.432-1.953c2.289,0,4.105,0.648,5.439,1.942c1.335,1.293,2.002,3.043,2.002,5.24
		c0,2.146-0.681,3.875-2.043,5.189C154.249,13.717,152.451,14.375,150.213,14.375L150.213,14.375z M150.213,13.588
		c1.737,0,3.076-0.551,4.018-1.655c0.943-1.107,1.414-2.691,1.414-4.751c0-2.087-0.465-3.678-1.393-4.768
		c-0.928-1.093-2.277-1.639-4.039-1.639c-1.74,0-3.078,0.562-4.02,1.688c-0.943,1.124-1.415,2.725-1.415,4.799
		c0,2.035,0.469,3.599,1.404,4.688C147.117,13.043,148.463,13.588,150.213,13.588L150.213,13.588z M161.109,14.086
		c0.084-2.226,0.125-4.523,0.125-6.894c0-2.467-0.041-4.771-0.125-6.914c0.391,0.042,0.721,0.062,0.991,0.062
		c0.324,0,0.862-0.024,1.606-0.073c0.75-0.048,1.34-0.072,1.773-0.072c1.457,0,2.574,0.31,3.357,0.928
		c0.783,0.622,1.173,1.491,1.173,2.609c0,1.293-0.479,2.294-1.442,3.001c-0.959,0.707-2.354,1.06-4.178,1.06
		c-0.598,0-1.111,0-1.542,0v2.884c0,1.062,0.042,2.198,0.121,3.409c-0.376-0.07-0.659-0.102-0.849-0.102
		C161.824,13.984,161.486,14.016,161.109,14.086L161.109,14.086z M162.849,7.026c0.403,0.028,0.706,0.042,0.911,0.042
		c2.898,0,4.346-1.052,4.346-3.153c0-1.066-0.31-1.822-0.93-2.267c-0.618-0.445-1.611-0.666-2.971-0.666
		c-0.394,0-0.811,0.021-1.256,0.062c-0.066,1.456-0.101,2.843-0.101,4.165V7.026L162.849,7.026z M173.06,14.086
		c0.083-2.226,0.124-4.523,0.124-6.894c0-2.467-0.041-4.771-0.124-6.914c0.39,0.042,0.722,0.062,0.991,0.062
		c0.323,0,0.862-0.024,1.607-0.073c0.748-0.048,1.338-0.072,1.772-0.072c1.456,0,2.574,0.31,3.357,0.928
		c0.783,0.622,1.173,1.491,1.173,2.609c0,1.293-0.479,2.294-1.441,3.001c-0.96,0.707-2.354,1.06-4.18,1.06c-0.596,0-1.109,0-1.541,0
		v2.884c0,1.062,0.041,2.198,0.121,3.409c-0.377-0.07-0.659-0.102-0.85-0.102C173.773,13.984,173.436,14.016,173.06,14.086
		L173.06,14.086z M174.799,7.026c0.403,0.028,0.707,0.042,0.91,0.042c2.898,0,4.348-1.052,4.348-3.153
		c0-1.066-0.311-1.822-0.932-2.267c-0.617-0.445-1.611-0.666-2.971-0.666c-0.393,0-0.811,0.021-1.256,0.062
		c-0.064,1.456-0.1,2.843-0.1,4.165V7.026L174.799,7.026z M185.031,14.086c0.109-1.66,0.165-4.009,0.165-7.056
		c0-2.75-0.049-4.999-0.146-6.752c0.77,0.042,1.591,0.062,2.468,0.062c0.899,0,2.445-0.021,4.63-0.062c0,0.055,0,0.148,0,0.283
		c-0.015,0.134-0.021,0.234-0.021,0.304c0,0.052,0.007,0.147,0.021,0.283c0,0.134,0,0.234,0,0.303
		c-1.539-0.134-3.134-0.199-4.793-0.199h-0.462c-0.028,1.604-0.042,3.025-0.042,4.264v0.808h0.363c1.242,0,2.701-0.056,4.385-0.162
		c-0.027,0.269-0.039,0.479-0.039,0.627c0,0.134,0.012,0.321,0.039,0.566c-0.59-0.106-1.857-0.162-3.803-0.162h-0.945v0.969
		c0,0.594,0,2.236,0,4.93h0.508c1.218,0,2.84-0.072,4.868-0.22c0,0.068,0,0.167,0,0.302c-0.014,0.135-0.021,0.238-0.021,0.305
		c0,0.068,0.008,0.168,0.021,0.303c0,0.135,0,0.234,0,0.305c-0.728,0-1.88,0-3.457,0C187.139,14.086,185.894,14.086,185.031,14.086
		L185.031,14.086z M195.908,14.086c0.096-1.563,0.145-3.861,0.145-6.894c0-2.926-0.049-5.23-0.145-6.914c0.514,0,0.821,0,0.931,0
		c0.256,0,0.739,0,1.456,0c0.714,0,1.309,0,1.777,0c3.033,0,4.551,1.087,4.551,3.264c0,0.942-0.35,1.739-1.042,2.391
		c-0.694,0.652-1.694,1.097-3.005,1.338c0.959,1.263,2.763,3.536,5.42,6.814c-0.445-0.07-0.85-0.102-1.211-0.102
		c-0.349,0-0.738,0.031-1.17,0.102c-1.062-1.549-1.9-2.722-2.52-3.516l-2.196-2.829c-0.229-0.297-0.497-0.445-0.808-0.445
		c-0.066,0-0.193,0.014-0.384,0.041v3.698c0,0.78,0.028,1.797,0.08,3.051c-0.338-0.07-0.648-0.102-0.931-0.102
		C196.587,13.984,196.271,14.016,195.908,14.086L195.908,14.086z M197.708,6.716c0.163,0.014,0.384,0.021,0.667,0.021
		c2.991,0,4.488-0.994,4.488-2.978c0-1.825-1.156-2.736-3.465-2.736c-0.398,0-0.924,0.021-1.569,0.062
		c-0.079,0.594-0.121,1.283-0.121,2.066V6.716z"/>
	<path fill-rule="evenodd" clip-rule="evenodd" fill="#070C1B" d="M186.346,21.91c0.617,0.289,0.926,0.744,0.926,1.367
		c0,0.324-0.084,0.605-0.255,0.842c-0.17,0.242-0.38,0.42-0.634,0.533c-0.303,0.139-0.697,0.207-1.18,0.207h-2.486v-5.402h2.316
		c0.576,0,1.008,0.084,1.296,0.254c0.427,0.258,0.642,0.648,0.642,1.174c0,0.211-0.055,0.412-0.162,0.602
		c-0.108,0.191-0.263,0.34-0.463,0.447V21.91L186.346,21.91z M186.561,23.27c0-0.17-0.043-0.32-0.131-0.455
		c-0.082-0.129-0.195-0.229-0.34-0.301c-0.195-0.094-0.49-0.139-0.887-0.139h-1.791v1.791h1.791c0.396,0,0.691-0.047,0.887-0.141
		c0.145-0.07,0.258-0.172,0.34-0.301C186.518,23.592,186.561,23.439,186.561,23.27L186.561,23.27z M185.033,21.68
		c0.438,0,0.746-0.059,0.926-0.178c0.201-0.129,0.301-0.33,0.301-0.602c0-0.268-0.1-0.469-0.301-0.604
		c-0.18-0.117-0.488-0.176-0.926-0.176h-1.621v1.574L185.033,21.68L185.033,21.68z M189.854,19.465v4.678h2.809v0.725h-3.55v-5.402
		H189.854L189.854,19.465z M196.551,24.25c0.623,0,1.132-0.191,1.528-0.57c0.396-0.381,0.595-0.883,0.595-1.506
		s-0.198-1.125-0.595-1.506s-0.905-0.57-1.528-0.57s-1.132,0.189-1.528,0.57s-0.594,0.883-0.594,1.506s0.197,1.125,0.594,1.506
		C195.419,24.059,195.928,24.25,196.551,24.25L196.551,24.25z M196.551,24.982c-0.838,0-1.523-0.271-2.053-0.816
		c-0.536-0.553-0.803-1.217-0.803-2c0-0.781,0.267-1.449,0.803-2c0.529-0.545,1.215-0.818,2.053-0.818s1.523,0.273,2.053,0.818
		c0.536,0.551,0.803,1.219,0.803,2c0,0.783-0.267,1.447-0.803,2C198.074,24.711,197.389,24.982,196.551,24.982L196.551,24.982z
		 M203.519,24.99c-0.839,0-1.524-0.271-2.054-0.818c-0.535-0.549-0.803-1.217-0.803-1.998c0-0.783,0.268-1.449,0.803-2
		c0.529-0.545,1.215-0.818,2.054-0.818c0.556,0,1.041,0.123,1.458,0.371c0.418,0.248,0.744,0.535,0.98,0.865l-0.648,0.377
		c-0.443-0.586-1.037-0.879-1.783-0.879c-0.623,0-1.131,0.189-1.527,0.57s-0.595,0.883-0.595,1.506c0,0.627,0.198,1.135,0.595,1.52
		c0.391,0.387,0.899,0.58,1.527,0.58c0.412,0,0.754-0.037,1.027-0.109c0.134-0.035,0.262-0.078,0.385-0.131
		c0.124-0.051,0.245-0.113,0.364-0.186v-0.949h-2.008v-0.693h2.702v1.945c-0.686,0.561-1.509,0.84-2.471,0.84L203.519,24.99z"/>
</g>
</svg>
