<?xml version="1.0" encoding="utf-8"?>
<!-- Generator: Adobe Illustrator 19.0.1, SVG Export Plug-In . SVG Version: 6.00 Build 0)  -->
<svg version="1.1" id="Layer_1" xmlns="http://www.w3.org/2000/svg" xmlns:xlink="http://www.w3.org/1999/xlink" x="0px" y="0px"
	 viewBox="-194 408.9 206 14.2" style="enable-background:new -194 408.9 206 14.2;" xml:space="preserve">
<style type="text/css">
	.st0{fill:#FFFFFF;}
</style>
<path class="st0" d="M-194,423.1c0.1-1.7,0.2-4,0.2-7.1c0-2.8,0-5-0.1-6.8c0.8,0,1.6,0.1,2.5,0.1s2.4,0,4.6-0.1c0,0.1,0,0.1,0,0.3
	c0,0.1,0,0.2,0,0.3c0,0.1,0,0.1,0,0.3c0,0.1,0,0.2,0,0.3c-1.5-0.1-3.1-0.2-4.8-0.2h-0.5c0,1.6,0,3,0,4.3v0.8h0.4
	c1.2,0,2.7-0.1,4.4-0.2c0,0.3,0,0.5,0,0.6s0,0.3,0,0.6c-0.6-0.1-1.9-0.2-3.8-0.2h-0.9v1c0,0.6,0,2.2,0,4.9h0.5
	c1.2,0,2.8-0.1,4.9-0.2c0,0.1,0,0.2,0,0.3c0,0.1,0,0.2,0,0.3c0,0.1,0,0.2,0,0.3c0,0.1,0,0.2,0,0.3c-0.7,0-1.9,0-3.5,0
	C-191.9,423.1-193.1,423.1-194,423.1L-194,423.1z M-184.5,423.1c0.6-1,2-3,4.1-6.1l0.5-0.7l-0.4-0.6c-0.7-1.2-1.9-3.3-3.8-6.3
	c0.3,0.1,0.7,0.1,1.1,0.1c0.4,0,0.7,0,1-0.1c1.2,2.4,2.1,4,2.6,4.7l0.5,0.7l0.5-0.7c0.7-1,1.6-2.6,2.8-4.8c0.2,0.1,0.5,0.1,0.7,0.1
	c0.3,0,0.5,0,0.7-0.1c-1.6,2.3-2.9,4.3-3.9,5.8l-0.3,0.5l0.4,0.7c0.4,0.7,1.8,3,4.1,6.8c-0.4-0.1-0.8-0.1-1.1-0.1s-0.7,0-1.1,0.1
	c-0.8-1.6-1.7-3.3-2.9-5.2l-0.5-0.8l-0.5,0.7c-0.8,1.1-1.8,2.9-3.1,5.3c-0.3-0.1-0.5-0.1-0.7-0.1C-184,423-184.3,423-184.5,423.1
	L-184.5,423.1z M-171,423.1c0.1-1.7,0.2-4,0.2-7.1c0-2.8,0-5-0.1-6.8c0.8,0,1.6,0.1,2.5,0.1s2.4,0,4.6-0.1c0,0.1,0,0.1,0,0.3
	c0,0.1,0,0.2,0,0.3c0,0.1,0,0.1,0,0.3c0,0.1,0,0.2,0,0.3c-1.5-0.1-3.1-0.2-4.8-0.2h-0.5c0,1.6,0,3,0,4.3v0.8h0.4
	c1.2,0,2.7-0.1,4.4-0.2c0,0.3,0,0.5,0,0.6s0,0.3,0,0.6c-0.6-0.1-1.9-0.2-3.8-0.2h-0.9v1c0,0.6,0,2.2,0,4.9h0.5
	c1.2,0,2.8-0.1,4.9-0.2c0,0.1,0,0.2,0,0.3c0,0.1,0,0.2,0,0.3c0,0.1,0,0.2,0,0.3c0,0.1,0,0.2,0,0.3c-0.7,0-1.9,0-3.5,0
	C-168.9,423.1-170.2,423.1-171,423.1L-171,423.1z M-149.6,422.2c-1,0.8-2.5,1.1-4.5,1.1c-2.2,0-4-0.6-5.2-1.9s-1.8-3-1.8-5.3
	c0-2.2,0.7-3.9,2-5.2c1.4-1.3,3.2-2,5.5-2c1.6,0,3.1,0.3,4.3,1c-0.2,0.7-0.3,1.3-0.3,1.9c-0.9-1.4-2.3-2.2-4.1-2.2
	c-1.7,0-3,0.6-3.9,1.7s-1.4,2.7-1.4,4.8c0,2,0.5,3.6,1.4,4.7s2.2,1.7,3.8,1.7c1.5,0,3-0.6,4.4-1.7L-149.6,422.2L-149.6,422.2z
	 M-146.1,409.3c0.3,0.1,0.6,0.1,0.9,0.1c0.4,0,0.7,0,0.9-0.1l-0.1,7.3c0,1,0,1.8,0.1,2.3c0.1,0.9,0.4,1.6,0.9,2.1
	c0.8,0.9,1.9,1.4,3.3,1.4c1.5,0,2.6-0.5,3.3-1.4c0.4-0.5,0.7-1.3,0.9-2.2c0.1-0.6,0.1-1.7,0.1-3.2c0-2.3,0-4.4-0.1-6.3
	c0.2,0.1,0.4,0.1,0.6,0.1c0.2,0,0.5,0,0.7-0.1c-0.1,1.7-0.1,3-0.1,3.7v0.5c0,2.2,0,3.7-0.1,4.6c-0.1,1.3-0.4,2.2-0.7,2.9
	c-0.9,1.6-2.6,2.4-4.9,2.4c-2,0-3.5-0.5-4.4-1.5s-1.4-2.5-1.4-4.6c0-0.1,0-0.6,0-1.5s0-1.8,0-2.6C-146,412-146,410.7-146.1,409.3
	L-146.1,409.3z M-127.3,423.1c0.1-3.7,0.1-6.9,0.1-9.5v-3.4h-0.5c-1.6,0-2.8,0.1-3.7,0.2c0-0.2,0-0.4,0-0.6c0-0.1,0-0.4,0-0.6
	c1.5,0,3.1,0.1,4.8,0.1s3.5,0,5.4-0.1c0,0.2-0.1,0.4-0.1,0.6s0,0.4,0.1,0.6c-0.9-0.2-2.1-0.2-3.6-0.2h-0.6c-0.1,1.1-0.1,2.6-0.1,4.5
	c0,2.5,0,5.2,0.1,8.3c-0.2,0-0.5,0-0.9,0C-126.8,423.1-127.1,423.1-127.3,423.1L-127.3,423.1z M-118.2,423.1c0.1-1.3,0.1-3,0.1-5.2
	v-1.7c0-3.4,0-5.7-0.1-6.9c0.3,0.1,0.6,0.1,0.9,0.1s0.7,0,0.9-0.1c-0.1,0.9-0.1,2.2-0.1,4v3c0,0.4,0,1,0,1.7s0,1.3,0,1.6
	c0,1.6,0,2.7,0.1,3.6c-0.3-0.1-0.6-0.1-0.9-0.1C-117.5,423-117.8,423-118.2,423.1L-118.2,423.1z M-108,423.1
	c-2-5.3-3.9-9.9-5.5-13.8c0.3,0.1,0.6,0.1,1,0.1s0.7,0,1-0.1c1.4,3.8,2.9,7.7,4.6,11.8c1.7-4,3.2-8,4.5-11.8
	c0.2,0.1,0.4,0.1,0.7,0.1c0.3,0,0.5,0,0.7-0.1c-1.9,4.4-3.7,9-5.6,13.8c-0.2-0.1-0.5-0.1-0.7-0.1C-107.6,423-107.8,423-108,423.1
	L-108,423.1z M-98.5,423.1c0.1-1.7,0.2-4,0.2-7.1c0-2.8,0-5-0.1-6.8c0.8,0,1.6,0.1,2.5,0.1s2.4,0,4.6-0.1c0,0.1,0,0.1,0,0.3
	c0,0.1,0,0.2,0,0.3c0,0.1,0,0.1,0,0.3c0,0.1,0,0.2,0,0.3c-1.5-0.1-3.1-0.2-4.8-0.2h-0.5c0,1.6,0,3,0,4.3v0.8h0.4
	c1.2,0,2.7-0.1,4.4-0.2c0,0.3,0,0.5,0,0.6s0,0.3,0,0.6c-0.6-0.1-1.9-0.2-3.8-0.2h-0.9v1c0,0.6,0,2.2,0,4.9h0.5
	c1.2,0,2.8-0.1,4.9-0.2c0,0.1,0,0.2,0,0.3c0,0.1,0,0.2,0,0.3c0,0.1,0,0.2,0,0.3c0,0.1,0,0.2,0,0.3c-0.7,0-1.9,0-3.5,0
	C-96.4,423.1-97.7,423.1-98.5,423.1L-98.5,423.1z M-78.3,422.3c0.2-0.7,0.4-1.4,0.4-2.1c0.6,1.6,1.7,2.4,3.3,2.4
	c0.9,0,1.6-0.3,2.1-0.8s0.8-1.3,0.8-2.2c0-0.6-0.2-1.2-0.5-1.6s-0.8-0.7-1.5-1l-1.6-0.7c-1.8-0.8-2.7-1.9-2.7-3.4
	c0-1.1,0.4-2.1,1.2-2.8c0.8-0.7,1.8-1.1,3.1-1.1c1.1,0,2.1,0.2,3.1,0.7c-0.2,0.4-0.4,0.9-0.6,1.6c-0.7-1-1.6-1.6-2.8-1.6
	c-0.7,0-1.3,0.2-1.8,0.7c-0.4,0.5-0.7,1.1-0.7,1.8c0,1.1,0.7,1.9,2,2.5l1.6,0.7c0.9,0.4,1.6,0.9,2,1.4s0.6,1.2,0.6,2.1
	c0,1.3-0.4,2.4-1.3,3.2c-0.9,0.8-2,1.2-3.5,1.2C-76.2,423.3-77.4,423-78.3,422.3L-78.3,422.3z M-66.6,423.1c0.1-1.6,0.2-4.1,0.2-7.4
	c0-2.9,0-5-0.1-6.4c0.3,0.1,0.6,0.1,0.9,0.1c0.4,0,0.7,0,0.9-0.1c-0.1,0.7-0.1,2.4-0.1,5.1v0.8c0.9,0,2.3,0,4.2,0c1.8,0,3.2,0,4.2,0
	v-0.8c0-1.9-0.1-3.6-0.2-5.1c0.3,0.1,0.6,0.1,1,0.1s0.7,0,1-0.1c-0.1,1.9-0.2,4.1-0.2,6.4c0,2.1,0.1,4.6,0.2,7.4
	c-0.3-0.1-0.6-0.1-1-0.1c-0.3,0-0.7,0-0.9,0.1c0.1-1.7,0.2-3.7,0.2-6.1v-1c-1.4,0-2.8-0.1-4.2-0.1s-2.8,0-4.2,0.1v1
	c0,3.3,0,5.3,0.1,6.1c-0.3-0.1-0.6-0.1-1-0.1S-66.3,423-66.6,423.1L-66.6,423.1z M-43.8,423.4c-2.3,0-4.1-0.6-5.5-1.9
	c-1.3-1.3-2-3-2-5.2s0.7-3.9,2-5.2c1.4-1.3,3.2-2,5.4-2c2.3,0,4.1,0.6,5.4,1.9c1.3,1.3,2,3,2,5.2c0,2.1-0.7,3.9-2,5.2
	C-39.8,422.7-41.5,423.4-43.8,423.4L-43.8,423.4z M-43.8,422.6c1.7,0,3.1-0.6,4-1.7s1.4-2.7,1.4-4.8c0-2.1-0.5-3.7-1.4-4.8
	c-0.9-1.1-2.3-1.6-4-1.6s-3.1,0.6-4,1.7s-1.4,2.7-1.4,4.8c0,2,0.5,3.6,1.4,4.7C-46.9,422-45.5,422.6-43.8,422.6L-43.8,422.6z
	 M-32.9,423.1c0.1-2.2,0.1-4.5,0.1-6.9c0-2.5,0-4.8-0.1-6.9c0.4,0,0.7,0.1,1,0.1s0.9,0,1.6-0.1c0.8,0,1.3-0.1,1.8-0.1
	c1.5,0,2.6,0.3,3.4,0.9s1.2,1.5,1.2,2.6c0,1.3-0.5,2.3-1.4,3c-1,0.7-2.4,1.1-4.2,1.1c-0.6,0-1.1,0-1.5,0v2.9c0,1.1,0,2.2,0.1,3.4
	c-0.4-0.1-0.7-0.1-0.8-0.1C-32.2,423-32.5,423-32.9,423.1L-32.9,423.1z M-31.2,416c0.4,0,0.7,0,0.9,0c2.9,0,4.3-1.1,4.3-3.2
	c0-1.1-0.3-1.8-0.9-2.3c-0.6-0.4-1.6-0.7-3-0.7c-0.4,0-0.8,0-1.3,0.1c-0.1,1.5-0.1,2.8-0.1,4.2L-31.2,416L-31.2,416z M-20.9,423.1
	c0.1-2.2,0.1-4.5,0.1-6.9c0-2.5,0-4.8-0.1-6.9c0.4,0,0.7,0.1,1,0.1s0.9,0,1.6-0.1c0.7,0,1.3-0.1,1.8-0.1c1.5,0,2.6,0.3,3.4,0.9
	c0.8,0.6,1.2,1.5,1.2,2.6c0,1.3-0.5,2.3-1.4,3c-1,0.7-2.4,1.1-4.2,1.1c-0.6,0-1.1,0-1.5,0v2.9c0,1.1,0,2.2,0.1,3.4
	c-0.4-0.1-0.7-0.1-0.9-0.1C-20.2,423-20.6,423-20.9,423.1L-20.9,423.1z M-19.2,416c0.4,0,0.7,0,0.9,0c2.9,0,4.3-1.1,4.3-3.2
	c0-1.1-0.3-1.8-0.9-2.3c-0.6-0.4-1.6-0.7-3-0.7c-0.4,0-0.8,0-1.3,0.1c-0.1,1.5-0.1,2.8-0.1,4.2L-19.2,416L-19.2,416z M-9,423.1
	c0.1-1.7,0.2-4,0.2-7.1c0-2.8,0-5-0.1-6.8c0.8,0,1.6,0.1,2.5,0.1s2.4,0,4.6-0.1c0,0.1,0,0.1,0,0.3c0,0.1,0,0.2,0,0.3
	c0,0.1,0,0.1,0,0.3c0,0.1,0,0.2,0,0.3c-1.5-0.1-3.1-0.2-4.8-0.2h-0.5c0,1.6,0,3,0,4.3v0.8h0.4c1.2,0,2.7-0.1,4.4-0.2
	c0,0.3,0,0.5,0,0.6s0,0.3,0,0.6c-0.6-0.1-1.9-0.2-3.8-0.2H-7v1c0,0.6,0,2.2,0,4.9h0.5c1.2,0,2.8-0.1,4.9-0.2c0,0.1,0,0.2,0,0.3
	c0,0.1,0,0.2,0,0.3c0,0.1,0,0.2,0,0.3c0,0.1,0,0.2,0,0.3c-0.7,0-1.9,0-3.5,0C-6.9,423.1-8.1,423.1-9,423.1L-9,423.1z M1.9,423.1
	c0.1-1.6,0.1-3.9,0.1-6.9c0-2.9,0-5.2-0.1-6.9c0.5,0,0.8,0,0.9,0c0.3,0,0.7,0,1.5,0c0.7,0,1.3,0,1.8,0c3,0,4.6,1.1,4.6,3.3
	c0,0.9-0.4,1.7-1,2.4c-0.7,0.7-1.7,1.1-3,1.3c1,1.3,2.8,3.5,5.4,6.8c-0.4-0.1-0.9-0.1-1.2-0.1s-0.7,0-1.2,0.1
	c-1.1-1.5-1.9-2.7-2.5-3.5L5,416.8c-0.2-0.3-0.5-0.4-0.8-0.4c-0.1,0-0.2,0-0.4,0v3.7c0,0.8,0,1.8,0.1,3.1c-0.3-0.1-0.6-0.1-0.9-0.1
	C2.6,423,2.3,423,1.9,423.1L1.9,423.1z M3.7,415.7c0.2,0,0.4,0,0.7,0c3,0,4.5-1,4.5-3c0-1.8-1.2-2.7-3.5-2.7c-0.4,0-0.9,0-1.6,0.1
	c-0.1,0.6-0.1,1.3-0.1,2.1L3.7,415.7L3.7,415.7z"/>
</svg>
