<?xml version="1.0" encoding="utf-8"?>
<!-- Generator: Adobe Illustrator 19.1.1, SVG Export Plug-In . SVG Version: 6.00 Build 0)  -->
<svg version="1.1" id="Слой_1" xmlns="http://www.w3.org/2000/svg" xmlns:xlink="http://www.w3.org/1999/xlink" x="0px" y="0px"
	 width="15.5px" height="15.5px" viewBox="0 0 15.5 15.5" style="enable-background:new 0 0 15.5 15.5;" xml:space="preserve">
<style type="text/css">
	.st0{fill:#201600;}
</style>
<g>
	<path class="st0" d="M7.7,8C7.7,8,7.6,8,7.6,7.9L0.1,0.4C0,0.3,0,0.2,0.1,0.1s0.3-0.1,0.4,0l7.5,7.5C8,7.7,8,7.8,7.9,7.9
		C7.9,8,7.8,8,7.7,8z"/>
</g>
<g>
	<path class="st0" d="M0.3,15.5c-0.1,0-0.1,0-0.2-0.1c-0.1-0.1-0.1-0.3,0-0.4l7.5-7.5c0.1-0.1,0.3-0.1,0.4,0C8,7.7,8,7.8,7.9,7.9
		l-7.5,7.5C0.4,15.5,0.3,15.5,0.3,15.5z"/>
</g>
<g>
	<path class="st0" d="M15.3,15.5c-0.1,0-0.1,0-0.2-0.1L7.6,7.9c-0.1-0.1-0.1-0.3,0-0.4c0.1-0.1,0.3-0.1,0.4,0l7.5,7.5
		c0.1,0.1,0.1,0.3,0,0.4C15.4,15.5,15.3,15.5,15.3,15.5z"/>
</g>
<g>
	<path class="st0" d="M7.8,8C7.7,8,7.6,8,7.6,7.9c-0.1-0.1-0.1-0.3,0-0.4l7.5-7.5c0.1-0.1,0.3-0.1,0.4,0c0.1,0.1,0.1,0.3,0,0.4
		L7.9,7.9C7.9,8,7.8,8,7.8,8z"/>
</g>
</svg>
