<?xml version="1.0" encoding="utf-8"?>
<!-- Generator: Adobe Illustrator 19.1.1, SVG Export Plug-In . SVG Version: 6.00 Build 0)  -->
<svg version="1.1" id="Слой_1" xmlns="http://www.w3.org/2000/svg" xmlns:xlink="http://www.w3.org/1999/xlink" x="0px" y="0px"
	 width="13px" height="13px" viewBox="-473 274 13 13" style="enable-background:new -473 274 13 13;" xml:space="preserve">
<style type="text/css">
	.st0{fill:#75CBC7;}
</style>
<path class="st0" d="M-465,279.2l-1.2,1.3l1.2,1.3c0.1,0,0.1,0.1,0,0.2l-0.1,0.1c0,0-0.1,0-0.1-0.1l-1.3-1.2l-1.3,1.2l-0.1,0.1
	c0,0-0.1,0-0.1-0.1c-0.1-0.1-0.1-0.2,0-0.2l1.3-1.3l-1.3-1.3c-0.1,0-0.1-0.1,0-0.2s0.2-0.1,0.3,0l1.3,1.3l1.2-1.3
	c0-0.1,0.1-0.1,0.2,0S-464.9,279.2-465,279.2z M-460,280.5c0,3.6-2.9,6.5-6.5,6.5s-6.5-2.9-6.5-6.5s2.9-6.5,6.5-6.5
	S-460,276.9-460,280.5z M-460.4,280.5c0-3.4-2.8-6.1-6.1-6.1c-3.4,0-6.1,2.8-6.1,6.1c0,3.4,2.8,6.1,6.1,6.1
	C-463.1,286.6-460.4,283.9-460.4,280.5z"/>
</svg>
