<?xml version="1.0" encoding="utf-8"?>
<!-- Generator: Adobe Illustrator 19.1.1, SVG Export Plug-In . SVG Version: 6.00 Build 0)  -->
<svg version="1.1" id="Слой_1" xmlns="http://www.w3.org/2000/svg" xmlns:xlink="http://www.w3.org/1999/xlink" x="0px" y="0px"
	 width="35.4px" height="35.4px" viewBox="0 0 35.4 35.4" style="enable-background:new 0 0 35.4 35.4;" xml:space="preserve">
<style type="text/css">
	.st0{fill:none;stroke:#929497;stroke-width:0.5;stroke-miterlimit:10;}
</style>
<path class="st0" d="M28.4,0.3H7c-3.7,0-6.7,3-6.7,6.7v7.1v14.3c0,3.7,3,6.7,6.7,6.7h21.4c3.7,0,6.7-3,6.7-6.7V14.1V7
	C35.2,3.3,32.1,0.3,28.4,0.3z M30.3,4.3l0.8,0V5v5.1l-5.9,0l0-5.9L30.3,4.3z M12.7,14.1c1.1-1.5,2.9-2.6,5-2.6c2.1,0,3.9,1,5,2.6
	c0.7,1,1.2,2.2,1.2,3.6c0,3.4-2.8,6.1-6.1,6.1c-3.4,0-6.1-2.8-6.1-6.1C11.6,16.4,12,15.1,12.7,14.1z M31.8,28.4
	c0,1.8-1.5,3.3-3.3,3.3H7c-1.8,0-3.3-1.5-3.3-3.3V14.1h5.2c-0.5,1.1-0.7,2.3-0.7,3.6c0,5.3,4.3,9.5,9.5,9.5c5.3,0,9.5-4.3,9.5-9.5
	c0-1.3-0.3-2.5-0.7-3.6h5.2V28.4z"/>
</svg>
