<?xml version="1.0" encoding="utf-8"?>
<!-- Generator: Adobe Illustrator 19.1.1, SVG Export Plug-In . SVG Version: 6.00 Build 0)  -->
<svg version="1.1" id="Слой_1" xmlns="http://www.w3.org/2000/svg" xmlns:xlink="http://www.w3.org/1999/xlink" x="0px" y="0px"
	 width="35.4px" height="35.4px" viewBox="0 0 35.4 35.4" style="enable-background:new 0 0 35.4 35.4;" xml:space="preserve">
<style type="text/css">
	.st0{fill:none;stroke:#929497;stroke-width:0.5;stroke-miterlimit:10;}
</style>
<path class="st0" d="M17.7,0.3C8.1,0.3,0.3,8.1,0.3,17.7c0,7.1,4.3,13.3,10.4,16c0-1.2,0-2.7,0.3-4c0.3-1.4,2.2-9.5,2.2-9.5
	s-0.6-1.1-0.6-2.8c0-2.6,1.5-4.5,3.4-4.5c1.6,0,2.4,1.2,2.4,2.6c0,1.6-1,4-1.5,6.2c-0.4,1.9,0.9,3.4,2.8,3.4c3.3,0,5.5-4.2,5.5-9.3
	c0-3.8-2.6-6.7-7.3-6.7c-5.3,0-8.6,3.9-8.6,8.4c0,1.5,0.4,2.6,1.1,3.4c0.3,0.4,0.4,0.5,0.3,1c-0.1,0.3-0.3,1.1-0.4,1.4
	c-0.1,0.4-0.5,0.6-0.9,0.4C7,22.7,5.9,20,5.9,17c0-5,4.2-10.9,12.5-10.9c6.7,0,11,4.8,11,10c0,6.8-3.8,12-9.4,12
	c-1.9,0-3.7-1-4.3-2.2c0,0-1,4-1.2,4.8c-0.4,1.3-1.1,2.7-1.8,3.7c1.6,0.5,3.2,0.7,4.9,0.7c9.6,0,17.5-7.8,17.5-17.5
	C35.2,8.1,27.3,0.3,17.7,0.3"/>
</svg>
