<?xml version="1.0" encoding="utf-8"?>
<!-- Generator: Adobe Illustrator 19.1.1, SVG Export Plug-In . SVG Version: 6.00 Build 0)  -->
<svg version="1.1" id="Слой_1" xmlns="http://www.w3.org/2000/svg" xmlns:xlink="http://www.w3.org/1999/xlink" x="0px" y="0px"
	 width="36.2px" height="28.9px" viewBox="0 0 36.2 28.9" style="enable-background:new 0 0 36.2 28.9;" xml:space="preserve">
<style type="text/css">
	.st0{fill:none;stroke:#929497;stroke-width:0.5;stroke-miterlimit:10;}
</style>
<path class="st0" d="M36,3.6c-1.3,0.6-2.7,1-4.1,1.1c1.5-0.9,2.6-2.3,3.2-4c-1.4,0.8-2.9,1.4-4.6,1.7c-1.3-1.4-3.2-2.3-5.2-2.3
	c-4,0-7.2,3.2-7.2,7.2c0,0.6,0.1,1.1,0.2,1.6C12.3,8.8,7,5.9,3.5,1.6c-0.6,1.1-1,2.3-1,3.6c0,2.5,1.3,4.7,3.2,6
	c-1.2,0-2.3-0.4-3.3-0.9v0.1c0,3.5,2.5,6.4,5.8,7c-0.6,0.2-1.2,0.3-1.9,0.3c-0.5,0-0.9,0-1.3-0.1c0.9,2.8,3.6,4.9,6.7,5
	c-2.5,1.9-5.5,3.1-8.9,3.1c-0.6,0-1.2,0-1.7-0.1c3.2,2,6.9,3.2,11,3.2c13.2,0,20.4-10.9,20.4-20.4c0-0.3,0-0.6,0-0.9
	C33.8,6.3,35.1,5.1,36,3.6"/>
</svg>
